HIERARCHY
ROOT Pelvis
{
	OFFSET 0.32 0 0
	CHANNELS 6 Xposition Yposition Zposition Zrotation Xrotation Yrotation
	JOINT SpineShoulder
	{
		OFFSET 0 6.740009 0
		CHANNELS 3 Zrotation Xrotation Yrotation
		JOINT Neck
		{
			OFFSET 0 2.640004 0
			CHANNELS 3 Zrotation Xrotation Yrotation
			End Site
			{
				OFFSET 0 4.719998 0
			}
		}
		JOINT ShoulderLeft
		{
			OFFSET 3.340001 0.6799955 0
			CHANNELS 3 Zrotation Xrotation Yrotation
			JOINT ElbowLeft
			{
				OFFSET 5.307964 0 0
				CHANNELS 3 Zrotation Xrotation Yrotation
				End Site
				{
					OFFSET 4.786495 0 0
				}
			}
		}
		JOINT ShoulderRight
		{
			OFFSET -3.300001 0.6799955 0
			CHANNELS 3 Zrotation Xrotation Yrotation
			JOINT ElbowRight
			{
				OFFSET -5.307964 0 0
				CHANNELS 3 Zrotation Xrotation Yrotation
				End Site
				{
					OFFSET -4.786495 0 0
				}
			}
		}
	}
	JOINT HipLeft
	{
		OFFSET 2.560001 -1.599997 0
		CHANNELS 3 Zrotation Xrotation Yrotation
		JOINT KneeLeft
		{
			OFFSET 0 -8.508625 0
			CHANNELS 3 Zrotation Xrotation Yrotation
			End Site
			{
				OFFSET 0 -7.880188 0
			}
		}
	}
	JOINT HipRight
	{
		OFFSET -2.560001 -1.599997 0
		CHANNELS 3 Zrotation Xrotation Yrotation
		JOINT KneeRight
		{
			OFFSET 0 -8.508625 0
			CHANNELS 3 Zrotation Xrotation Yrotation
			End Site
			{
				OFFSET 0 -7.880188 0
			}
		}
	}
}
MOTION
Frames: 16
Frame Time: 0.03333334
0 0 0 -352.3232 19.26188 80.92085 -2.357552 19.63292 353.4785 -3.754701 7.060819 358.6718 -228.5012 76.61086 166.3838 -77.11335 304.2894 193.6981 -109.2579 338.8799 187.2508 -214.6098 25.58902 225.6724 -10.75262 271.2557 10.03082 -284.2696 77.76837 284.5357 -311.9798 291.4257 48.95874 -339.2497 71.43578 323.9427
0 0 0 -351.4509 17.87325 84.1223 -2.333679 20.88265 352.8122 -1.823537 6.006796 359.072 -244.6071 65.60974 179.2969 -102.6235 299.4779 157.2274 -108.97 341.9889 185.0786 -217.9672 24.73415 222.9704 -317.0242 273.2526 59.52901 -274.1512 87.9185 272.2089 -301.2776 288.5006 58.94849 -330.1166 81.06752 313.878
0 0 0 -351.0484 17.70195 85.14124 -0.4326833 20.87544 351.6691 -2.488193 5.041357 359.066 -245.1293 67.56765 181.6184 -88.7976 305.0604 187.2129 -108.4271 344.1101 186.2032 -222.9219 24.2534 224.0506 -312.3858 273.418 63.67973 -273.0747 88.04205 270.9373 -301.3443 291.679 55.3194 -3.454993 81.32778 344.6948
0 0 0 -348.9675 16.06532 87.91776 -2.613204 21.89786 354.4789 -357.5883 7.039945 359.3253 -251.8779 43.9802 180.3692 -139.8461 322.811 202.3385 -105.8549 351.0814 189.286 -216.4416 19.12984 213.2097 -343.7563 272.7302 32.47255 -241.5983 85.01128 241.3133 -292.0278 289.9588 62.63591 -289.0456 86.92152 269.1608
0 0 0 -350.2045 15.94026 91.17251 -358.869 21.74797 353.9991 -0.8744543 6.238183 359.0942 -255.5528 46.55135 195.0351 -113.8528 317.9889 161.9504 -106.9474 359.8909 187.8934 -218.4073 13.13465 215.4262 -313.8948 271.8184 61.35143 -131.1839 89.12598 130.9953 -304.536 289.1411 52.31083 -311.5023 80.47106 294.9725
0 0 0 -351.901 17.80018 86.45158 -0.6991996 19.47785 352.0098 -2.545873 2.051066 359.4446 -242.9565 65.72399 180.4811 -91.96342 305.1197 175.5848 -109.8036 344.7135 186.1884 -214.733 22.63622 219.8685 -341.4619 276.6178 33.65195 -7.231536 82.51795 4.554301 -311.6701 292.3976 46.34558 -14.90116 80.2906 357.4611
0 0 0 -353.1912 16.84608 85.69126 -359.9297 18.77195 352.5646 -1.578392 1.753604 359.5766 -243.4818 68.46278 182.5881 -82.82443 305.9396 185.9433 -108.7318 344.5515 187.5 -217.5673 22.39692 222.6464 -246.6425 273.6775 128.3462 -126.198 86.56231 124.2459 -300.3112 292.1209 55.19123 -17.08234 72.0266 359.4975
0 0 0 -353.0565 17.7796 87.79629 -359.0587 20.7553 352.0762 -3.27391 3.345427 359.1262 -244.022 68.22021 184.7964 -82.236 309.1602 181.5868 -109.5056 350.0069 186.0873 -217.383 19.34645 220.0244 -277.2733 273.2081 98.20652 -109.5767 86.71235 107.4308 -305.423 291.0547 52.48626 -12.50031 72.053 356.4298
0 0 0 -349.5973 16.75188 82.28401 -3.614546 22.31652 353.9084 -0.8455371 6.575065 359.1877 -244.3363 62.21951 175.2955 -119.489 311.5348 220.4153 -105.9381 340.6631 188.6686 -218.9064 25.4958 222.2106 -348.3337 272.7937 29.34734 -262.7451 82.82915 262.2807 -299.2088 291.3188 56.9563 -340.1803 79.11524 321.6004
0 0 0 -352.1237 17.6462 89.46362 -0.3977242 20.23775 354.3002 -2.281128 4.803178 359.1433 -244.6456 58.16837 185.4987 -103.868 316.3728 171.3842 -109.1957 355.1699 187.3588 -216.4485 15.89285 215.2422 -214.0615 273.192 163.7976 -216.4611 83.58418 216.4328 -298.6403 286.716 62.09783 -318.8572 81.34499 303.6992
0 0 0 -354.1042 17.53912 83.97457 -2.778822 17.72046 353.8235 -1.913942 5.479079 359.1689 -248.601 64.25491 183.9295 -106.8412 303.1982 167.422 -108.6391 341.2041 184.9562 -224.3865 27.28656 222.4253 -198.5772 273.7535 180.0661 -271.4226 82.88145 271.5851 -284.8689 285.644 76.92728 -297.5815 79.49516 282.1731
0 0 0 -348.2551 15.86819 88.28481 -0.9644393 23.70652 355.0142 -358.5749 11.71714 358.5514 -251.5909 47.0802 185.8478 -140.2371 327.1068 202.7153 -106.3734 355.3423 189.0764 -215.9273 15.02878 215.5535 -7.997056 274.6308 9.047647 -259.0023 84.33456 259.6862 -297.4603 287.6314 60.07707 -276.1162 84.19965 258.9748
0 0 0 -349.9407 17.23411 88.84152 -358.9341 21.44755 352.0238 -2.04111 7.413192 358.7958 -253.8659 56.43973 191.4505 -95.72752 303.7531 158.3356 -109.9304 351.1833 187.3866 -222.9777 19.01871 221.2828 -299.68 272.8049 76.00912 -215.7298 86.5716 214.1536 -295.074 287.1994 64.15031 -283.7359 82.50216 266.8698
0 0 0 -351.388 16.81469 86.64552 -358.366 21.76161 353.2354 -2.16071 6.243482 358.8674 -246.3439 65.65876 186.2223 -90.80143 312.379 186.9685 -108.4623 351.4799 188.5382 -219.1563 18.61664 219.1805 -222.9128 271.4635 154.7864 -233.045 84.29233 233.2639 -292.4135 286.9556 67.04478 -328.4686 79.34095 312.8318
0 0 0 -349.11 16.14775 86.56487 -1.050417 20.79569 354.8777 -0.07091964 9.826777 358.7241 -253.8847 52.84429 191.2528 -114.3107 308.0059 144.533 -107.2842 350.6474 188.0087 -224.2022 19.69373 221.831 -332.5363 272.1304 43.93971 -238.2939 85.38366 237.9648 -302.9929 288.9368 54.75755 -316.2058 79.5106 299.696
0 0 0 -349.913 17.46427 89.23306 -358.7839 20.97574 351.8592 -1.956927 12.02626 358.1586 -253.4154 55.72143 190.5475 -99.25736 309.8039 172.9603 -109.0351 352.586 188.4882 -221.4581 18.17947 219.8024 -10.67713 274.2 7.868087 -277.3448 83.94398 278.1112 -320.0045 290.045 41.00286 -318.8366 76.03722 305.2258
